<mxfile host="app.diagrams.net" modified="2020-12-30T14:45:36.027Z" agent="5.0 (Windows)" etag="4-xn0g9ra7AD14NI5UUW" version="14.1.3" type="github">
  <diagram id="kgpKYQtTHZ0yAKxKKP6v" name="Page-1">
    <mxGraphModel dx="782" dy="427" grid="1" gridSize="10" guides="1" tooltips="1" connect="1" arrows="1" fold="1" page="1" pageScale="1" pageWidth="850" pageHeight="1100" math="0" shadow="0">
      <root>
        <mxCell id="0" />
        <mxCell id="1" parent="0" />
        <mxCell id="fJkAf8iDeeMi9OgPM06Z-2" value="&lt;b&gt;&lt;font style=&quot;font-size: 14px&quot;&gt;رستوران:رستوران&lt;/font&gt;&lt;/b&gt;" style="shape=umlLifeline;perimeter=lifelinePerimeter;whiteSpace=wrap;html=1;container=1;collapsible=0;recursiveResize=0;outlineConnect=0;rounded=1;shadow=0;comic=0;labelBackgroundColor=none;strokeWidth=1;fontFamily=Verdana;fontSize=12;align=center;" parent="1" vertex="1">
          <mxGeometry x="550" y="120" width="100" height="316" as="geometry" />
        </mxCell>
        <mxCell id="fJkAf8iDeeMi9OgPM06Z-3" value="" style="html=1;points=[];perimeter=orthogonalPerimeter;rounded=0;shadow=0;comic=0;labelBackgroundColor=none;strokeWidth=1;fontFamily=Verdana;fontSize=12;align=center;" parent="fJkAf8iDeeMi9OgPM06Z-2" vertex="1">
          <mxGeometry x="45" y="140" width="10" height="120" as="geometry" />
        </mxCell>
        <mxCell id="fJkAf8iDeeMi9OgPM06Z-5" value="مدیریت غذا" style="shape=note;whiteSpace=wrap;html=1;size=14;verticalAlign=top;align=left;spacingTop=-6;rounded=0;shadow=0;comic=0;labelBackgroundColor=none;strokeWidth=1;fontFamily=Verdana;fontSize=12" parent="1" vertex="1">
          <mxGeometry width="100" height="35" as="geometry" />
        </mxCell>
        <mxCell id="fJkAf8iDeeMi9OgPM06Z-6" value="" style="shape=umlLifeline;participant=umlActor;perimeter=lifelinePerimeter;whiteSpace=wrap;html=1;container=1;collapsible=0;recursiveResize=0;verticalAlign=top;spacingTop=36;outlineConnect=0;" parent="1" vertex="1">
          <mxGeometry x="160" y="114" width="20" height="326" as="geometry" />
        </mxCell>
        <mxCell id="fJkAf8iDeeMi9OgPM06Z-7" value="&lt;b&gt;&lt;font style=&quot;font-size: 18px&quot;&gt;فروشنده&lt;/font&gt;&lt;/b&gt;" style="text;html=1;align=center;verticalAlign=middle;resizable=0;points=[];autosize=1;" parent="1" vertex="1">
          <mxGeometry x="140" y="90" width="60" height="20" as="geometry" />
        </mxCell>
        <mxCell id="fJkAf8iDeeMi9OgPM06Z-8" value="&lt;b&gt;&lt;font&gt;&lt;font style=&quot;font-size: 18px&quot;&gt;سیستم &lt;/font&gt;&lt;br&gt;&lt;/font&gt;&lt;/b&gt;" style="shape=umlLifeline;perimeter=lifelinePerimeter;whiteSpace=wrap;html=1;container=1;collapsible=0;recursiveResize=0;outlineConnect=0;" parent="1" vertex="1">
          <mxGeometry x="330" y="120" width="100" height="320" as="geometry" />
        </mxCell>
        <mxCell id="fJkAf8iDeeMi9OgPM06Z-9" value="" style="html=1;points=[];perimeter=orthogonalPerimeter;rounded=0;shadow=0;comic=0;labelBackgroundColor=none;strokeWidth=1;fontFamily=Verdana;fontSize=12;align=center;" parent="fJkAf8iDeeMi9OgPM06Z-8" vertex="1">
          <mxGeometry x="45" y="90" width="10" height="120" as="geometry" />
        </mxCell>
        <mxCell id="fJkAf8iDeeMi9OgPM06Z-11" value="" style="html=1;points=[];perimeter=orthogonalPerimeter;" parent="1" vertex="1">
          <mxGeometry x="165" y="194" width="10" height="130" as="geometry" />
        </mxCell>
        <mxCell id="fJkAf8iDeeMi9OgPM06Z-14" value="(تنظیم منوی روزانه (نوع و تعداد و قیمت غذا" style="html=1;verticalAlign=bottom;endArrow=block;labelBackgroundColor=none;fontFamily=Verdana;fontSize=12;edgeStyle=elbowEdgeStyle;elbow=vertical;entryX=0.136;entryY=0.123;entryDx=0;entryDy=0;entryPerimeter=0;" parent="1" target="fJkAf8iDeeMi9OgPM06Z-3" edge="1">
          <mxGeometry relative="1" as="geometry">
            <mxPoint x="386" y="275" as="sourcePoint" />
            <mxPoint x="590" y="274" as="targetPoint" />
            <Array as="points">
              <mxPoint x="590" y="275" />
            </Array>
          </mxGeometry>
        </mxCell>
        <mxCell id="fJkAf8iDeeMi9OgPM06Z-4" value="(ثبت فعالسازی منو (نوع غذاو تعداد و قیمت" style="html=1;verticalAlign=bottom;endArrow=block;labelBackgroundColor=none;fontFamily=Verdana;fontSize=12;edgeStyle=elbowEdgeStyle;elbow=vertical;exitX=1.024;exitY=0.468;exitDx=0;exitDy=0;exitPerimeter=0;" parent="1" source="fJkAf8iDeeMi9OgPM06Z-11" edge="1">
          <mxGeometry relative="1" as="geometry">
            <mxPoint x="180" y="254" as="sourcePoint" />
            <mxPoint x="376" y="254" as="targetPoint" />
            <Array as="points">
              <mxPoint x="286" y="254" />
              <mxPoint x="296" y="234" />
            </Array>
          </mxGeometry>
        </mxCell>
        <mxCell id="jMtxda6HqL_l2iOmwYq7-1" value="&lt;font style=&quot;font-size: 15px&quot;&gt;پیام تایید&lt;br&gt;&lt;/font&gt;" style="html=1;verticalAlign=bottom;endArrow=open;dashed=1;endSize=8;" edge="1" parent="1" source="fJkAf8iDeeMi9OgPM06Z-8" target="fJkAf8iDeeMi9OgPM06Z-6">
          <mxGeometry relative="1" as="geometry">
            <mxPoint x="310" y="290" as="sourcePoint" />
            <mxPoint x="230" y="290" as="targetPoint" />
            <Array as="points">
              <mxPoint x="310" y="290" />
            </Array>
          </mxGeometry>
        </mxCell>
      </root>
    </mxGraphModel>
  </diagram>
</mxfile>
